<svg width="317" height="70" viewBox="0 0 317 70" fill="none" xmlns="http://www.w3.org/2000/svg">
<g clip-path="url(#clip0_26_17)">
<path opacity="0.25" d="M71.7686 10.7424C66.6033 10.7424 62.3887 6.51891 62.3887 1.27151" stroke="white" stroke-width="0.63"/>
<path opacity="0.24" d="M71.768 19.7334C61.6592 19.7334 53.4834 11.4464 53.4834 1.27151" stroke="white" stroke-width="0.63"/>
<path opacity="0.23" d="M71.7682 28.1485C57.0645 28.1485 45.1494 16.1178 45.1494 1.27151" stroke="white" stroke-width="0.63"/>
<path opacity="0.18" d="M71.7682 37.0435C52.216 37.0435 36.3398 21.0453 36.3398 1.27151" stroke="white" stroke-width="0.63"/>
<path opacity="0.15" d="M71.7679 45.7785C47.4307 45.7785 27.6885 25.8447 27.6885 1.27151" stroke="white" stroke-width="0.63"/>
<path opacity="0.14" d="M71.7673 54.4175C42.7085 54.4175 19.1318 30.6122 19.1318 1.27151" stroke="white" stroke-width="0.63"/>
<path opacity="0.12" d="M71.7683 62.7366C38.1462 62.7366 10.8936 35.2197 10.8936 1.27151" stroke="white" stroke-width="0.63"/>
<path opacity="0.1" d="M56.719 68.9958C54.4035 68.4877 52.1197 67.8526 49.8994 67.0904C23.2552 58.1984 3.77952 33.5232 2.57422 4.14801" stroke="white" stroke-width="0.63"/>
<path opacity="0.08" d="M32.7943 68.6811C31.9017 68.1491 31.0399 67.6172 30.1781 67.0853C17.2819 58.7619 7.0326 46.5898 1 32.1648" stroke="white" stroke-width="0.63"/>
<path opacity="0.04" d="M18.3137 68.681C11.6499 63.5029 5.7772 57.337 1 50.4229" stroke="white" stroke-width="0.63"/>
<path d="M60.1695 17.5896C61.3946 17.5896 62.3877 16.5869 62.3877 15.3499C62.3877 14.1129 61.3946 13.1101 60.1695 13.1101C58.9444 13.1101 57.9512 14.1129 57.9512 15.3499C57.9512 16.5869 58.9444 17.5896 60.1695 17.5896Z" fill="#00EDC5" stroke="#00EDC5" stroke-width="0.273"/>
<path d="M24.2346 65.6803C25.3722 65.6803 26.2944 64.7492 26.2944 63.6005C26.2944 62.4519 25.3722 61.5208 24.2346 61.5208C23.097 61.5208 22.1748 62.4519 22.1748 63.6005C22.1748 64.7492 23.097 65.6803 24.2346 65.6803Z" fill="#3B5668"/>
<path d="M11.178 11.5743C12.3156 11.5743 13.2378 10.6432 13.2378 9.4946C13.2378 8.346 12.3156 7.41479 11.178 7.41479C10.0404 7.41479 9.11816 8.346 9.11816 9.4946C9.11816 10.6432 10.0404 11.5743 11.178 11.5743Z" fill="#10212B" stroke="#415566" stroke-width="0.315"/>
<path d="M49.11 37.0115H55.6696C55.9865 37.0115 56.2717 36.7555 56.2717 36.4035V31.6361C56.2717 31.3161 56.0182 31.0281 55.6696 31.0281H46.5115L39.2864 14.678C39.1596 14.39 38.8744 14.198 38.5575 14.198H32.6634C32.3465 14.198 32.0613 14.39 31.9345 14.678L24.7094 31.0281H15.5513C15.2344 31.0281 14.9492 31.2841 14.9492 31.6361V36.4355C14.9492 36.7555 15.2027 37.0434 15.5513 37.0434H22.0792L15.0126 53.0736C14.8541 53.4576 15.1393 53.9056 15.5513 53.9056H20.8117C21.1286 53.9056 21.4138 53.7136 21.5405 53.4256L35.5788 21.5572L49.617 53.4256C49.7437 53.7136 50.029 53.9056 50.3458 53.9056H55.6696C56.0816 53.9056 56.3668 53.4576 56.2083 53.0736L49.11 37.0115Z" fill="white"/>
<path d="M92.7172 55.503V56.453H88.1982V48.817H92.6862V49.767H89.2342V52.112H92.4352V53.063H89.2342V55.503H92.7172Z" fill="white"/>
<path d="M95.4482 52.6191C95.4482 50.401 97.0792 48.6582 99.4022 48.6582C100.783 48.6582 102.038 49.387 102.665 50.5277L101.787 51.0347C101.347 50.1792 100.437 49.6405 99.4022 49.6405C97.6132 49.6405 96.4522 50.9397 96.4522 52.6191C96.4522 54.2985 97.6442 55.5976 99.4022 55.5976C100.437 55.5976 101.347 55.0589 101.787 54.2351L102.665 54.7421C102.038 55.8828 100.814 56.6116 99.4022 56.6116C97.1112 56.6116 95.4482 54.8371 95.4482 52.6191Z" fill="white"/>
<path d="M105.365 52.6191C105.365 50.401 107.091 48.6582 109.287 48.6582C111.484 48.6582 113.21 50.4327 113.21 52.6191C113.21 54.8055 111.484 56.5799 109.287 56.5799C107.059 56.6116 105.365 54.8371 105.365 52.6191ZM112.175 52.6191C112.175 50.9397 110.919 49.6405 109.256 49.6405C107.593 49.6405 106.337 50.9397 106.337 52.6191C106.337 54.2985 107.593 55.5976 109.256 55.5976C110.919 55.5976 112.175 54.2985 112.175 52.6191Z" fill="white"/>
<path d="M115.94 54.7104L116.819 54.2035C117.101 55.059 117.729 55.5977 118.827 55.5977C119.894 55.5977 120.428 55.0907 120.428 54.4253C120.428 53.6331 119.769 53.3796 118.639 53.031C117.415 52.6508 116.254 52.2706 116.254 50.8447C116.254 49.4821 117.384 48.69 118.639 48.69C119.894 48.69 120.773 49.3871 121.212 50.3694L120.365 50.8763C120.083 50.2109 119.549 49.7039 118.639 49.7039C117.823 49.7039 117.258 50.1476 117.258 50.8447C117.258 51.5418 117.792 51.8269 118.859 52.1438C120.177 52.5874 121.432 52.9677 121.432 54.4569C121.432 55.7878 120.365 56.6433 118.827 56.6433C117.384 56.6116 116.348 55.8512 115.94 54.7104Z" fill="white"/>
<path d="M127.332 53.348V56.453H126.328V53.348L123.66 48.817H124.79L126.861 52.397L128.933 48.817H130.062L127.332 53.348Z" fill="white"/>
<path d="M132.229 54.7104L133.108 54.2035C133.39 55.059 134.018 55.5977 135.116 55.5977C136.183 55.5977 136.716 55.0907 136.716 54.4253C136.716 53.6331 136.057 53.3796 134.928 53.031C133.704 52.6508 132.543 52.2706 132.543 50.8447C132.543 49.4821 133.672 48.69 134.928 48.69C136.183 48.69 137.062 49.3871 137.501 50.3694L136.654 50.8763C136.371 50.2109 135.838 49.7039 134.928 49.7039C134.112 49.7039 133.547 50.1476 133.547 50.8447C133.547 51.5418 134.08 51.8269 135.147 52.1438C136.465 52.5874 137.721 52.9677 137.721 54.4569C137.721 55.7878 136.654 56.6433 135.116 56.6433C133.672 56.6116 132.637 55.8512 132.229 54.7104Z" fill="white"/>
<path d="M145.753 49.767H143.525V56.453H142.521V49.767H140.293V48.817H145.753V49.767Z" fill="white"/>
<path d="M153.254 55.503V56.453H148.735V48.817H153.191V49.767H149.739V52.112H152.94V53.063H149.739V55.503H153.254Z" fill="white"/>
<path d="M163.61 56.453H162.606V50.464L160.126 54.615H160.001L157.522 50.464V56.421H156.517V48.785H157.647L160.064 52.841L162.48 48.785H163.61V56.453Z" fill="white"/>
<path d="M173.276 49.767V52.239H176.477V53.189H173.276V56.421H172.271V48.785H176.633V49.736H173.276V49.767Z" fill="white"/>
<path d="M179.709 53.8865V48.8167H180.714V53.8549C180.714 54.9005 181.341 55.6293 182.565 55.6293C183.789 55.6293 184.417 54.9322 184.417 53.8549V48.8167H185.421V53.8865C185.421 55.5343 184.228 56.6116 182.596 56.6116C180.902 56.6116 179.709 55.5343 179.709 53.8865Z" fill="white"/>
<path d="M194.804 48.817V56.453H193.988L190.097 50.75V56.453H189.093V48.817H189.908L193.8 54.52V48.817H194.804Z" fill="white"/>
<path d="M205.098 52.6191C205.098 54.7421 203.591 56.4532 201.52 56.4532H198.57V48.8167H201.52C203.591 48.8167 205.098 50.4961 205.098 52.6191ZM204.156 52.6191C204.156 51.0031 203.089 49.7673 201.52 49.7673H199.574V55.5026H201.52C203.089 55.5026 204.156 54.2351 204.156 52.6191Z" fill="white"/>
<path d="M209.491 48.817V56.453H208.487V48.817H209.491Z" fill="white"/>
<path d="M218.937 48.817V56.453H218.121L214.23 50.75V56.453H213.225V48.817H214.041L217.933 54.52V48.817H218.937Z" fill="white"/>
<path d="M229.983 53.1261C229.983 55.059 228.54 56.6116 226.28 56.6116C223.958 56.6116 222.295 54.8372 222.295 52.6508C222.295 50.4644 223.958 48.69 226.28 48.69C227.692 48.69 228.916 49.4504 229.544 50.5278L228.665 51.0348C228.226 50.2109 227.316 49.6722 226.249 49.6722C224.491 49.6722 223.299 50.9714 223.299 52.6508C223.299 54.2985 224.491 55.6294 226.312 55.6294C227.881 55.6294 228.822 54.7421 229.011 53.6014H226.218V52.6825H230.015V53.1261H229.983Z" fill="white"/>
<path d="M243.447 51.2565C243.447 52.6508 242.411 53.7281 240.999 53.7281H239.241V56.4532H238.237V48.8167H240.999C242.38 48.8167 243.447 49.8623 243.447 51.2565ZM242.442 51.2565C242.442 50.3693 241.815 49.7356 240.999 49.7356H239.241V52.7458H240.999C241.815 52.7775 242.442 52.1438 242.442 51.2565Z" fill="white"/>
<path d="M249.378 53.538H247.589V56.4532H246.585V48.8167H249.629C250.916 48.8167 251.983 49.8623 251.983 51.1932C251.983 52.2072 251.323 53.0944 250.413 53.4112L252.202 56.4849H251.072L249.378 53.538ZM247.589 52.6191H249.597C250.351 52.6191 250.947 51.9853 250.947 51.1932C250.947 50.401 250.351 49.7673 249.597 49.7673H247.589V52.6191Z" fill="white"/>
<path d="M254.808 52.6191C254.808 50.401 256.534 48.6582 258.731 48.6582C260.927 48.6582 262.654 50.4327 262.654 52.6191C262.654 54.8055 260.927 56.5799 258.731 56.5799C256.534 56.6116 254.808 54.8371 254.808 52.6191ZM261.649 52.6191C261.649 50.9397 260.394 49.6405 258.731 49.6405C257.067 49.6405 255.812 50.9397 255.812 52.6191C255.812 54.2985 257.067 55.5976 258.731 55.5976C260.363 55.5976 261.649 54.2985 261.649 52.6191Z" fill="white"/>
<path d="M273.26 53.1261C273.26 55.059 271.816 56.6116 269.557 56.6116C267.234 56.6116 265.571 54.8372 265.571 52.6508C265.571 50.4644 267.234 48.69 269.557 48.69C270.969 48.69 272.193 49.4504 272.82 50.5278L271.942 51.0348C271.502 50.2109 270.592 49.6722 269.525 49.6722C267.768 49.6722 266.575 50.9714 266.575 52.6508C266.575 54.2985 267.768 55.6294 269.588 55.6294C271.157 55.6294 272.099 54.7421 272.287 53.6014H269.494V52.6825H273.291V53.1261H273.26Z" fill="white"/>
<path d="M279.349 53.538H277.56V56.4532H276.556V48.8167H279.6C280.887 48.8167 281.954 49.8623 281.954 51.1932C281.954 52.2072 281.295 53.0944 280.385 53.4112L282.173 56.4849H281.044L279.349 53.538ZM277.56 52.6191H279.569C280.322 52.6191 280.918 51.9853 280.918 51.1932C280.918 50.401 280.322 49.7673 279.569 49.7673H277.56V52.6191Z" fill="white"/>
<path d="M289.925 54.7421H286.504L285.876 56.4532H284.809L287.634 48.8167H288.764L291.588 56.4532H290.521L289.925 54.7421ZM289.58 53.7915L288.23 50.0208L286.881 53.7915H289.58Z" fill="white"/>
<path d="M301.629 56.453H300.625V50.464L298.146 54.615H298.02L295.541 50.464V56.421H294.537V48.785H295.667L298.083 52.841L300.5 48.785H301.629V56.453Z" fill="white"/>
<path d="M88.1982 41.011H301.629" stroke="white" stroke-width="0.892"/>
<path d="M119.246 30.0576V13.4231C119.246 13.2649 119.12 13.1384 118.964 13.1384H116.582C116.425 13.1384 116.3 13.2649 116.3 13.4231V32.7773C116.3 32.9354 116.425 33.0619 116.582 33.0619H128.835C128.991 33.0619 129.117 32.9354 129.117 32.7773V30.3738C129.117 30.2157 128.991 30.0892 128.835 30.0892H119.246V30.0576Z" fill="white"/>
<path d="M135.635 13.107H149.862C150.019 13.107 150.144 13.2335 150.144 13.3916V15.795C150.144 15.9532 150.019 16.0797 149.862 16.0797H135.635C135.479 16.0797 135.353 15.9532 135.353 15.795V13.3916C135.353 13.2335 135.479 13.107 135.635 13.107Z" fill="white"/>
<path d="M135.635 30.0576H149.862C150.019 30.0576 150.144 30.1841 150.144 30.3423V32.7457C150.144 32.9038 150.019 33.0303 149.862 33.0303H135.635C135.479 33.0303 135.353 32.9038 135.353 32.7457V30.3423C135.353 30.1841 135.479 30.0576 135.635 30.0576Z" fill="white"/>
<path d="M135.635 21.5823H149.862C150.019 21.5823 150.144 21.7088 150.144 21.8669V24.2704C150.144 24.4285 150.019 24.555 149.862 24.555H135.635C135.479 24.555 135.353 24.4285 135.353 24.2704V21.8669C135.353 21.7088 135.479 21.5823 135.635 21.5823Z" fill="white"/>
<path d="M239.955 13.107H254.182C254.339 13.107 254.464 13.2335 254.464 13.3916V15.795C254.464 15.9532 254.339 16.0797 254.182 16.0797H239.955C239.798 16.0797 239.673 15.9532 239.673 15.795V13.3916C239.642 13.2335 239.767 13.107 239.955 13.107Z" fill="white"/>
<path d="M239.955 30.0576H254.182C254.339 30.0576 254.464 30.1841 254.464 30.3423V32.7457C254.464 32.9038 254.339 33.0303 254.182 33.0303H239.955C239.798 33.0303 239.673 32.9038 239.673 32.7457V30.3423C239.642 30.1841 239.767 30.0576 239.955 30.0576Z" fill="white"/>
<path d="M239.955 21.5823H254.182C254.339 21.5823 254.464 21.7088 254.464 21.8669V24.2704C254.464 24.4285 254.339 24.555 254.182 24.555H239.955C239.798 24.555 239.673 24.4285 239.673 24.2704V21.8669C239.642 21.7088 239.767 21.5823 239.955 21.5823Z" fill="white"/>
<path d="M194.61 13.107H196.992C197.148 13.107 197.274 13.2335 197.274 13.3916V32.7458C197.274 32.9039 197.148 33.0304 196.992 33.0304H194.61C194.453 33.0304 194.328 32.9039 194.328 32.7458V13.4232C194.328 13.2335 194.453 13.107 194.61 13.107Z" fill="white"/>
<path d="M191.069 21.5822H183.454V13.4231C183.454 13.2649 183.329 13.1384 183.172 13.1384H180.79C180.634 13.1384 180.508 13.2649 180.508 13.4231V21.6138H177.845C177.688 21.6138 177.563 21.7403 177.563 21.8985V24.3019C177.563 24.46 177.688 24.5865 177.845 24.5865H180.508V32.7457C180.508 32.9038 180.634 33.0303 180.79 33.0303H183.172C183.329 33.0303 183.454 32.9038 183.454 32.7457V24.5865H191.069C191.226 24.5865 191.351 24.46 191.351 24.3019V21.8985C191.351 21.7087 191.226 21.5822 191.069 21.5822Z" fill="white"/>
<path d="M105.395 24.5549H108.685C108.842 24.5549 108.967 24.4284 108.967 24.2703V21.8668C108.967 21.7087 108.842 21.5822 108.685 21.5822H104.078L100.443 13.3598C100.381 13.2017 100.224 13.1384 100.067 13.1384H97.1224C96.9654 13.1384 96.8404 13.2333 96.7464 13.3598L93.1114 21.5822H88.5044C88.3474 21.5822 88.2224 21.7087 88.2224 21.8668V24.2703C88.2224 24.4284 88.3474 24.5549 88.5044 24.5549H91.7944L88.2224 32.6192C88.1594 32.7773 88.2224 32.9354 88.3794 32.9987C88.4104 33.0303 88.4734 33.0303 88.5044 33.0303H91.1364C91.2934 33.0303 91.4184 32.9354 91.5124 32.8089L98.5944 16.7753L105.677 32.8089C105.739 32.9671 105.896 33.0303 106.053 33.0303H108.685C108.842 33.0303 108.967 32.9038 108.967 32.7457C108.967 32.7141 108.967 32.6508 108.936 32.6192L105.395 24.5549Z" fill="white"/>
<path d="M172.643 17.5344C171.515 14.8463 168.914 13.107 166.031 13.107H157.695C157.539 13.107 157.413 13.2335 157.413 13.3916V15.795C157.413 15.9532 157.539 16.0797 157.695 16.0797H166.031C168.35 16.0797 170.23 17.9771 170.23 20.3174C170.23 22.6576 168.35 24.5551 166.031 24.5551H157.695C157.539 24.5551 157.413 24.6815 157.413 24.8397V32.7142C157.413 32.8723 157.539 32.9988 157.695 32.9988H160.077C160.234 32.9988 160.359 32.8723 160.359 32.7142V27.5278H166.031C169.979 27.5278 173.207 24.3021 173.207 20.3174C173.207 19.3686 173.019 18.4199 172.643 17.5344Z" fill="white"/>
<path d="M276.273 24.3652C277.088 23.1635 277.496 21.772 277.496 20.3172C277.496 16.3325 274.299 13.0752 270.351 13.0752H262.015C261.859 13.0752 261.733 13.2017 261.733 13.3598V15.7633C261.733 15.9214 261.859 16.0479 262.015 16.0479H270.351C272.67 16.0479 274.55 17.9454 274.55 20.2856C274.55 22.6258 272.67 24.5233 270.351 24.5233H262.015C261.859 24.5233 261.733 24.6498 261.733 24.8079V32.6824C261.733 32.8406 261.859 32.9671 262.015 32.9671H264.397C264.553 32.9671 264.679 32.8406 264.679 32.6824V27.496H270.351C270.852 27.496 271.354 27.4328 271.824 27.3379L274.237 32.8089C274.299 32.9038 274.393 32.9987 274.519 32.9987H277.213C277.37 32.9987 277.496 32.8722 277.496 32.7141C277.496 32.6824 277.496 32.6192 277.464 32.5876L274.613 26.1045C275.271 25.6618 275.835 25.0609 276.273 24.3652Z" fill="white"/>
<path d="M233.123 13.107H218.896C218.739 13.107 218.614 13.2335 218.614 13.3916V15.795C218.614 15.9532 218.739 16.0797 218.896 16.0797H229.018L225.069 21.1396C224.975 21.2661 225.007 21.4242 225.101 21.5191C225.132 21.5507 225.195 21.5823 225.257 21.5823H228.234C228.422 21.5823 228.579 21.4875 228.704 21.361L233.248 15.5104C233.342 15.4155 233.374 15.289 233.374 15.1309V13.4232C233.436 13.2335 233.28 13.107 233.123 13.107Z" fill="white"/>
<path d="M233.124 30.0576H221.999L225.916 24.9977C226.01 24.8712 225.979 24.7131 225.885 24.6182C225.854 24.5866 225.791 24.555 225.728 24.555H222.751C222.563 24.555 222.407 24.6498 222.281 24.7763L217.769 30.5952C217.675 30.6901 217.643 30.8166 217.643 30.9747V32.7457C217.643 32.9038 217.769 33.0303 217.925 33.0303H233.124C233.28 33.0303 233.406 32.9038 233.406 32.7457V30.3422C233.437 30.1841 233.28 30.0576 233.124 30.0576Z" fill="white"/>
<path d="M298.898 24.5548C298.742 24.5548 298.616 24.6497 298.616 24.8078C298.522 25.2822 298.397 25.7249 298.24 26.1677C297.802 27.4011 296.987 28.4763 295.921 29.2353C294.856 29.9626 293.634 30.3421 292.349 30.3105C291.503 30.3105 290.626 30.1524 289.842 29.8045C288.683 29.2985 287.711 28.4763 287.053 27.3694C286.583 26.5788 286.238 25.6933 286.082 24.7762C286.05 24.6181 285.925 24.5232 285.8 24.5232H283.387C283.23 24.5232 283.105 24.6497 283.105 24.8078V24.8395C283.23 25.6301 283.418 26.4207 283.7 27.1797C285.016 30.8798 288.495 33.3148 292.38 33.2832C293.634 33.2832 294.887 33.0302 296.015 32.5559C297.739 31.8285 299.18 30.5635 300.183 28.9507C300.935 27.6857 301.437 26.2942 301.625 24.8711C301.656 24.713 301.531 24.5548 301.374 24.5232H301.343L298.898 24.5548Z" fill="white"/>
<path d="M285.769 21.5507C285.925 21.5507 286.051 21.4559 286.051 21.2977C286.145 20.8234 286.27 20.349 286.427 19.9062C286.865 18.6729 287.68 17.5977 288.745 16.8387C289.811 16.1113 291.033 15.7318 292.318 15.7634C293.164 15.7634 294.041 15.9216 294.825 16.2694C295.984 16.7754 296.956 17.5977 297.614 18.7045C298.084 19.4951 298.428 20.4122 298.585 21.3294C298.617 21.4875 298.742 21.5824 298.867 21.5824H301.28C301.437 21.5824 301.562 21.4559 301.562 21.2977V21.2661C301.437 20.4755 301.249 19.6849 300.967 18.9259C299.651 15.2258 296.172 12.7907 292.287 12.8223C291.033 12.8223 289.78 13.0753 288.651 13.5497C286.928 14.2771 285.486 15.5421 284.484 17.1549C283.732 18.4199 283.23 19.8114 283.042 21.2661C283.011 21.4242 283.136 21.5824 283.293 21.614H283.324L285.769 21.5507Z" fill="white"/>
<path d="M73.4029 1H70.2549V68.681H73.4029V1Z" fill="#00EDC5"/>
<path d="M308.555 1H8.87043C4.69792 1 1.31543 4.38249 1.31543 8.555V61.126C1.31543 65.2985 4.69792 68.681 8.87043 68.681H308.555C312.728 68.681 316.11 65.2985 316.11 61.126V8.555C316.11 4.38249 312.728 1 308.555 1Z" stroke="white" stroke-width="0.63"/>
</g>
<defs>
<clipPath id="clip0_26_17">
<rect width="317" height="70" fill="white"/>
</clipPath>
</defs>
</svg>
