<svg width="30" height="30" viewBox="0 0 30 30" fill="none" xmlns="http://www.w3.org/2000/svg">
<path d="M4.13424 22C3.3219 22 2.54341 21.8581 1.79876 21.5746C1.05411 21.2781 0.454525 20.8978 0 20.4337L0.797836 18.0746C1.23302 18.4871 1.74557 18.8287 2.33548 19.0994C2.93507 19.3573 3.53949 19.4862 4.14875 19.4862C4.61295 19.4862 4.98527 19.4282 5.26572 19.3122C5.55584 19.1832 5.7686 19.0092 5.90399 18.7901C6.03938 18.5709 6.10708 18.3195 6.10708 18.0359C6.10708 17.675 6.00069 17.3913 5.78794 17.1851C5.57519 16.9659 5.29473 16.7919 4.94659 16.663C4.59844 16.5212 4.21161 16.3923 3.7861 16.2762C3.37026 16.1473 2.94958 15.9926 2.52406 15.8122C2.10823 15.6317 1.72623 15.3996 1.37808 15.116C1.02993 14.8324 0.744651 14.4586 0.52222 13.9945C0.309464 13.5304 0.203086 12.9374 0.203086 12.2155C0.203086 11.442 0.357817 10.7394 0.667282 10.1077C0.986416 9.46316 1.46028 8.95396 2.08888 8.58011C2.72715 8.19337 3.52499 8 4.48239 8C5.12066 8 5.74926 8.10313 6.36819 8.30939C6.98711 8.50276 7.53351 8.79926 8.00738 9.19889L7.28207 11.5773C6.80821 11.2164 6.33433 10.9521 5.86047 10.7845C5.38661 10.604 4.92241 10.5138 4.46788 10.5138C4.01336 10.5138 3.64104 10.5847 3.35091 10.7265C3.06079 10.8683 2.85287 11.0552 2.72715 11.2873C2.60143 11.5065 2.53857 11.7643 2.53857 12.0608C2.53857 12.4088 2.64495 12.6924 2.85771 12.9116C3.07046 13.1179 3.35091 13.2855 3.69906 13.4144C4.04721 13.5433 4.4292 13.6722 4.84504 13.8011C5.27056 13.93 5.69124 14.0783 6.10708 14.2459C6.53259 14.4134 6.91942 14.639 7.26757 14.9227C7.61571 15.2063 7.89617 15.5801 8.10892 16.0442C8.33135 16.5083 8.44256 17.0948 8.44256 17.8039C8.44256 18.5645 8.28299 19.2606 7.96386 19.8923C7.64472 20.5239 7.16602 21.0332 6.52775 21.4199C5.89915 21.8066 5.10131 22 4.13424 22ZM14.9078 22C14.1245 22 13.3944 21.8325 12.7174 21.4972C12.0501 21.1492 11.4699 20.6593 10.9767 20.0276C10.4835 19.396 10.0967 18.6547 9.81622 17.8039C9.54544 16.953 9.41005 16.0184 9.41005 15C9.41005 13.9816 9.54544 13.047 9.81622 12.1961C10.0967 11.3453 10.4835 10.604 10.9767 9.97238C11.4796 9.3407 12.0646 8.85727 12.7319 8.5221C13.3992 8.17403 14.1294 8 14.9223 8C15.8024 8 16.5954 8.20626 17.3013 8.61878C18.017 9.01842 18.6166 9.61142 19.1001 10.3978L17.5915 12.2541C17.2433 11.7256 16.8565 11.3324 16.431 11.0746C16.0055 10.8039 15.5413 10.6685 15.0384 10.6685C14.5646 10.6685 14.1294 10.7716 13.7328 10.9779C13.3364 11.1842 12.993 11.4807 12.7029 11.8674C12.4128 12.2541 12.1856 12.7118 12.0211 13.2403C11.8664 13.7689 11.789 14.3554 11.789 15C11.789 15.6446 11.8664 16.2311 12.0211 16.7597C12.1856 17.2882 12.4128 17.7459 12.7029 18.1326C12.993 18.5193 13.3364 18.8158 13.7328 19.0221C14.1294 19.2284 14.5646 19.3315 15.0384 19.3315C15.5413 19.3315 16.0055 19.2026 16.431 18.9448C16.8565 18.674 17.2433 18.268 17.5915 17.7265L19.1001 19.5829C18.6166 20.3692 18.017 20.9687 17.3013 21.3812C16.5954 21.7938 15.7976 22 14.9078 22ZM27.65 8.23204H30V21.768H27.65V8.23204ZM23.0371 21.768H20.6871V8.23204H23.0371V21.768ZM27.8241 16.2182H22.863V13.5691H27.8241V16.2182Z" fill="black"/>
</svg>
